<svg xmlns="http://www.w3.org/2000/svg" viewBox="0 0 960 620">
  <defs>
    <pattern id="grid2" width="40" height="40" patternUnits="userSpaceOnUse">
      <path d="M 40 0 L 0 0 0 40" fill="none" stroke="#1e293b" stroke-width="0.5"/>
    </pattern>
    <marker id="arrow2" markerWidth="10" markerHeight="7" refX="9" refY="3.5" orient="auto">
      <polygon points="0 0, 10 3.5, 0 7" fill="#64748b"/>
    </marker>
    <marker id="arrow-green" markerWidth="10" markerHeight="7" refX="9" refY="3.5" orient="auto">
      <polygon points="0 0, 10 3.5, 0 7" fill="#34d399"/>
    </marker>
    <marker id="arrow-rose" markerWidth="10" markerHeight="7" refX="9" refY="3.5" orient="auto">
      <polygon points="0 0, 10 3.5, 0 7" fill="#fb7185"/>
    </marker>
    <marker id="arrow-amber2" markerWidth="10" markerHeight="7" refX="9" refY="3.5" orient="auto">
      <polygon points="0 0, 10 3.5, 0 7" fill="#fbbf24"/>
    </marker>

    <!-- Shadow filter -->
    <filter id="shadow" x="-5%" y="-5%" width="110%" height="110%">
      <feDropShadow dx="0" dy="2" stdDeviation="3" flood-color="#000" flood-opacity="0.4"/>
    </filter>
  </defs>
  <style>
    @import url('https://fonts.googleapis.com/css2?family=JetBrains+Mono:wght@400;500;600;700&amp;display=swap');
    text { font-family: 'JetBrains Mono', 'Noto Sans SC', 'PingFang SC', sans-serif; }
  </style>

  <!-- Background -->
  <rect width="100%" height="100%" fill="#0f172a"/>
  <rect width="100%" height="100%" fill="url(#grid2)"/>

  <!-- Title -->
  <text x="30" y="35" fill="#f1f5f9" font-size="15" font-weight="700">Dashboard 前端布局 — Agent 可观测性看板</text>

  <!-- Dashboard outer frame -->
  <rect x="30" y="55" width="900" height="540" rx="12" fill="#1e293b" stroke="#334155" stroke-width="2" filter="url(#shadow)"/>

  <!-- Header bar -->
  <rect x="30" y="55" width="900" height="44" rx="12" fill="#0f172a"/>
  <rect x="30" y="55" width="900" height="22" fill="#0f172a"/>
  <text x="55" y="82" fill="#22d3ee" font-size="12" font-weight="700">CHANG_AI_TEAM · Agent 可观测性看板</text>
  <text x="840" y="82" fill="#34d399" font-size="9" font-weight="600" text-anchor="end">🟢 3 个 Agent 活跃中</text>

  <!-- ===== Row 1: Summary cards ===== -->
  <g filter="url(#shadow)">
    <rect x="55" y="112" width="195" height="70" rx="8" fill="#1e293b" stroke="#22d3ee" stroke-width="1.2"/>
    <text x="152" y="140" fill="#22d3ee" font-size="20" font-weight="700" text-anchor="middle">12</text>
    <text x="152" y="163" fill="#94a3b8" font-size="11" font-weight="500" text-anchor="middle">活跃任务</text>
    <text x="152" y="177" fill="#64748b" font-size="9" text-anchor="middle">⏵ 3 个运行中</text>
  </g>

  <g filter="url(#shadow)">
    <rect x="270" y="112" width="195" height="70" rx="8" fill="#1e293b" stroke="#34d399" stroke-width="1.2"/>
    <text x="367" y="140" fill="#34d399" font-size="20" font-weight="700" text-anchor="middle">156K</text>
    <text x="367" y="163" fill="#94a3b8" font-size="11" font-weight="500" text-anchor="middle">今日 Token 消耗</text>
    <text x="367" y="177" fill="#64748b" font-size="9" text-anchor="middle">📈 +12% vs 昨日</text>
  </g>

  <g filter="url(#shadow)">
    <rect x="485" y="112" width="195" height="70" rx="8" fill="#1e293b" stroke="#fbbf24" stroke-width="1.2"/>
    <text x="582" y="140" fill="#fbbf24" font-size="20" font-weight="700" text-anchor="middle">8</text>
    <text x="582" y="163" fill="#94a3b8" font-size="11" font-weight="500" text-anchor="middle">Agent 总数</text>
    <text x="582" y="177" fill="#64748b" font-size="9" text-anchor="middle">3 忙碌 · 5 空闲</text>
  </g>

  <g filter="url(#shadow)">
    <rect x="700" y="112" width="195" height="70" rx="8" fill="#1e293b" stroke="#a78bfa" stroke-width="1.2"/>
    <text x="797" y="140" fill="#a78bfa" font-size="20" font-weight="700" text-anchor="middle">247</text>
    <text x="797" y="163" fill="#94a3b8" font-size="11" font-weight="500" text-anchor="middle">今日 Tool 调用</text>
    <text x="797" y="177" fill="#64748b" font-size="9" text-anchor="middle">⚡ 平均 1.2s</text>
  </g>

  <!-- ===== Row 2: Task Kanban + Token Trend ===== -->
  <!-- Task Kanban -->
  <rect x="55" y="202" width="430" height="180" rx="8" fill="#1e293b" stroke="#334155" stroke-width="1"/>
  <text x="70" y="224" fill="#f1f5f9" font-size="12" font-weight="700">📋 任务看板</text>

  <!-- Kanban columns -->
  <rect x="65" y="240" width="130" height="130" rx="6" fill="#0f172a" stroke="#334155" stroke-width="1"/>
  <text x="130" y="260" fill="#64748b" font-size="9" font-weight="600" text-anchor="middle">PENDING</text>
  <text x="130" y="280" fill="#22d3ee" font-size="16" font-weight="700" text-anchor="middle">3</text>
  <rect x="75" y="295" width="110" height="22" rx="4" fill="rgba(8,51,68,0.4)" stroke="#22d3ee" stroke-width="0.8"/>
  <text x="130" y="310" fill="#94a3b8" font-size="8" text-anchor="middle">Kafka 诊断调研</text>
  <rect x="75" y="322" width="110" height="22" rx="4" fill="rgba(8,51,68,0.4)" stroke="#22d3ee" stroke-width="0.8"/>
  <text x="130" y="337" fill="#94a3b8" font-size="8" text-anchor="middle">Perf 基线测试</text>

  <rect x="205" y="240" width="130" height="130" rx="6" fill="#0f172a" stroke="#334155" stroke-width="1"/>
  <text x="270" y="260" fill="#64748b" font-size="9" font-weight="600" text-anchor="middle">IN PROGRESS</text>
  <text x="270" y="280" fill="#34d399" font-size="16" font-weight="700" text-anchor="middle">5</text>
  <rect x="215" y="295" width="110" height="22" rx="4" fill="rgba(6,78,59,0.4)" stroke="#34d399" stroke-width="0.8"/>
  <text x="270" y="310" fill="#94a3b8" font-size="8" text-anchor="middle">W02 周报生成</text>
  <rect x="215" y="322" width="110" height="22" rx="4" fill="rgba(6,78,59,0.4)" stroke="#34d399" stroke-width="0.8"/>
  <text x="270" y="337" fill="#94a3b8" font-size="8" text-anchor="middle">SRE 监控巡检</text>

  <rect x="345" y="240" width="130" height="130" rx="6" fill="#0f172a" stroke="#334155" stroke-width="1"/>
  <text x="410" y="260" fill="#64748b" font-size="9" font-weight="600" text-anchor="middle">DONE / FAILED</text>
  <text x="410" y="280" fill="#94a3b8" font-size="16" font-weight="700" text-anchor="middle">18</text>
  <rect x="355" y="295" width="110" height="22" rx="4" fill="rgba(6,78,59,0.3)" stroke="#34d399" stroke-width="0.8"/>
  <text x="410" y="310" fill="#94a3b8" font-size="8" text-anchor="middle">GW 配置审查</text>
  <rect x="355" y="322" width="110" height="22" rx="4" fill="rgba(136,19,55,0.3)" stroke="#fb7185" stroke-width="0.8"/>
  <text x="410" y="337" fill="#94a3b8" font-size="8" text-anchor="middle">🛑 超时分析</text>

  <!-- Token trend chart area -->
  <rect x="505" y="202" width="410" height="180" rx="8" fill="#1e293b" stroke="#334155" stroke-width="1"/>
  <text x="520" y="224" fill="#f1f5f9" font-size="12" font-weight="700">📈 Token 消耗趋势 (7 天)</text>

  <!-- Simulated chart -->
  <g transform="translate(520,240)">
    <!-- axes -->
    <line x1="0" y1="130" x2="370" y2="130" stroke="#334155" stroke-width="1"/>
    <line x1="0" y1="0" x2="0" y2="130" stroke="#334155" stroke-width="1"/>
    <!-- grid lines -->
    <line x1="0" y1="32" x2="370" y2="32" stroke="#1e293b" stroke-width="0.5"/>
    <line x1="0" y1="65" x2="370" y2="65" stroke="#1e293b" stroke-width="0.5"/>
    <line x1="0" y1="97" x2="370" y2="97" stroke="#1e293b" stroke-width="0.5"/>
    <!-- CTO line -->
    <polyline points="0,100 60,80 120,70 180,60 240,55 300,40 360,45" fill="none" stroke="#22d3ee" stroke-width="2.5"/>
    <circle cx="360" cy="45" r="4" fill="#22d3ee"/>
    <!-- RD line -->
    <polyline points="0,120 60,110 120,95 180,85 240,90 300,75 360,60" fill="none" stroke="#a78bfa" stroke-width="2.5"/>
    <circle cx="360" cy="60" r="4" fill="#a78bfa"/>
    <!-- SRE line -->
    <polyline points="0,130 60,125 120,115 180,120 240,110 300,100 360,95" fill="none" stroke="#34d399" stroke-width="2.5"/>
    <circle cx="360" cy="95" r="4" fill="#34d399"/>

    <text x="185" y="150" fill="#64748b" font-size="9" text-anchor="middle">Mon · Tue · Wed · Thu · Fri · Sat · Sun</text>
  </g>

  <!-- Legend for chart -->
  <g transform="translate(520,500)">
    <rect x="0" y="0" width="10" height="10" rx="2" fill="#22d3ee"/>
    <text x="16" y="9" fill="#94a3b8" font-size="9">CTO</text>
    <rect x="60" y="0" width="10" height="10" rx="2" fill="#a78bfa"/>
    <text x="76" y="9" fill="#94a3b8" font-size="9">RD 层</text>
    <rect x="130" y="0" width="10" height="10" rx="2" fill="#34d399"/>
    <text x="146" y="9" fill="#94a3b8" font-size="9">SRE 层</text>
  </g>

  <!-- ===== Row 3: Tool calls pie + Activity ===== -->
  <rect x="55" y="402" width="295" height="180" rx="8" fill="#1e293b" stroke="#334155" stroke-width="1"/>
  <text x="70" y="424" fill="#f1f5f9" font-size="12" font-weight="700">🥧 工具调用分布</text>

  <!-- Simulated pie chart with arcs -->
  <g transform="translate(202,510)">
    <circle cx="0" cy="0" r="65" fill="none" stroke="#1e293b" stroke-width="65"/>
    <!-- exec: 45% -->
    <path d="M 0,-65 A 65,65 0 1,1 -29.5,57.9 L 0,0 Z" fill="#22d3ee" opacity="0.8"/>
    <!-- web_search: 25% -->
    <path d="M -29.5,57.9 A 65,65 0 0,1 50.3,-41.1 L 0,0 Z" fill="#a78bfa" opacity="0.8"/>
    <!-- sessions_spawn: 18% -->
    <path d="M 50.3,-41.1 A 65,65 0 0,1 -2.1,64.9 L 0,0 Z" fill="#34d399" opacity="0.8"/>
    <!-- Other: 12% -->
    <path d="M -2.1,64.9 A 65,65 0 0,1 0,-65 L 0,0 Z" fill="#94a3b8" opacity="0.8"/>
    <circle cx="0" cy="0" r="30" fill="#0f172a"/>
    <text x="0" y="4" fill="#94a3b8" font-size="10" font-weight="600" text-anchor="middle">247</text>
  </g>

  <!-- Pie legend -->
  <text x="55" y="560" fill="#22d3ee" font-size="9">█ exec (45%)</text>
  <text x="152" y="560" fill="#a78bfa" font-size="9">█ web_search (25%)</text>
  <text x="55" y="575" fill="#34d399" font-size="9">█ spawn (18%)</text>
  <text x="152" y="575" fill="#94a3b8" font-size="9">█ other (12%)</text>

  <!-- Activity feed -->
  <rect x="370" y="402" width="545" height="180" rx="8" fill="#1e293b" stroke="#334155" stroke-width="1"/>
  <text x="385" y="424" fill="#f1f5f9" font-size="12" font-weight="700">📝 实时 Activity</text>

  <g transform="translate(385,440)">
    <rect x="0" y="0" width="14" height="14" rx="3" fill="rgba(34,211,238,0.3)" stroke="#22d3ee" stroke-width="0.8"/>
    <text x="20" y="11" fill="#94a3b8" font-size="9"><tspan fill="#22d3ee" font-weight="600">CTO</tspan> spawn research-w02 → RD-1</text>
    <text x="500" y="11" fill="#64748b" font-size="8" text-anchor="end">5 秒前</text>

    <rect x="0" y="24" width="14" height="14" rx="3" fill="rgba(167,139,250,0.3)" stroke="#a78bfa" stroke-width="0.8"/>
    <text x="20" y="35" fill="#94a3b8" font-size="9"><tspan fill="#a78bfa" font-weight="600">RD-1</tspan> 完成 W02 周报生成 · 用时 8m 32s</text>
    <text x="500" y="35" fill="#64748b" font-size="8" text-anchor="end">2 分钟前</text>

    <rect x="0" y="48" width="14" height="14" rx="3" fill="rgba(52,211,153,0.3)" stroke="#34d399" stroke-width="0.8"/>
    <text x="20" y="59" fill="#94a3b8" font-size="9"><tspan fill="#34d399" font-weight="600">SRE-1</tspan> 任务阻塞: '监控巡检' 等待外部输入</text>
    <text x="500" y="59" fill="#64748b" font-size="8" text-anchor="end">15 分钟前</text>

    <rect x="0" y="72" width="14" height="14" rx="3" fill="rgba(34,211,238,0.3)" stroke="#22d3ee" stroke-width="0.8"/>
    <text x="20" y="83" fill="#94a3b8" font-size="9"><tspan fill="#22d3ee" font-weight="600">CTO</tspan> 创建任务: 'Kafka 磁盘故障处理调研'</text>
    <text x="500" y="83" fill="#64748b" font-size="8" text-anchor="end">22 分钟前</text>

    <rect x="0" y="96" width="14" height="14" rx="3" fill="rgba(251,191,36,0.3)" stroke="#fbbf24" stroke-width="0.8"/>
    <text x="20" y="107" fill="#94a3b8" font-size="9"><tspan fill="#fbbf24" font-weight="600">P2 Infra</tspan> 任命专家: Perf 专家 → RD-Perf</text>
    <text x="500" y="107" fill="#64748b" font-size="8" text-anchor="end">35 分钟前</text>
  </g>

  <!-- ===== Data source note ===== -->
  <text x="480" y="610" fill="#64748b" font-size="8" text-anchor="middle">数据来源: SQLite (read-only) · 自动刷新: 5s · Chart.js 渲染 · 纯静态 HTML + GitHub Pages</text>
</svg>
